<svg width="137" height="137" viewBox="0 0 137 137" fill="none" xmlns="http://www.w3.org/2000/svg">
<g filter="url(#filter0_d_32_81)">
<rect x="8" y="7" width="119" height="119" rx="5" fill="#330000"/>
<rect x="9.5" y="8.5" width="116" height="116" rx="3.5" stroke="white" stroke-width="3"/>
</g>
<path d="M65.6657 78.5026H47.2254L43.4732 90.1364C43.4221 90.3486 43.2985 90.5364 43.1236 90.6674C42.9487 90.7983 42.7335 90.8642 42.5151 90.8538H33.175C32.6428 90.8538 32.4564 90.5615 32.6163 89.9768L48.5823 44.0789C48.7417 43.6009 48.9016 43.0567 49.061 42.4456C49.2702 41.3821 49.3771 40.3019 49.3804 39.2185C49.3695 39.1427 49.3765 39.0654 49.4007 38.9928C49.4249 38.9201 49.4658 38.8541 49.52 38.8C49.5742 38.7458 49.6403 38.705 49.713 38.6807C49.7858 38.6565 49.8632 38.6495 49.9391 38.6603H62.6322C63.004 38.6603 63.2169 38.7934 63.2708 39.0593L81.3919 90.0566C81.5518 90.5884 81.3919 90.8542 80.9131 90.8538H70.535C70.3567 90.8735 70.1774 90.8278 70.0305 90.7251C69.8836 90.6225 69.7792 90.47 69.7368 90.296L65.6657 78.5026ZM50.099 68.4625H62.7121L62.5322 67.87L62.2435 66.9318L62.0376 66.2729L61.709 65.2354L61.0103 63.0514L60.3958 61.1151L58.8 56.0714C58.4028 54.8176 58.0216 53.5588 57.6565 52.2954L57.3645 51.2699L57.0234 50.0575L56.5027 48.1783L56.4051 47.8243H56.3256C55.9262 49.7369 55.4398 51.6305 54.8679 53.499L53.6834 57.3019L53.0317 59.4029L52.374 61.5299C52.255 61.9141 52.1369 62.2941 52.0184 62.6695L51.6651 63.7822L51.3137 64.8688L50.9641 65.9286L50.6164 66.962C50.5011 67.3021 50.3858 67.6375 50.271 67.9688L50.099 68.4625ZM92.1679 47.1069C91.3537 47.1396 90.5418 47.0003 89.7852 46.6982C89.0286 46.3961 88.3444 45.9381 87.7774 45.3539C87.2119 44.7445 86.7726 44.0294 86.4849 43.2499C86.1972 42.4704 86.0666 41.6419 86.1007 40.8118C86.0718 39.9901 86.2168 39.1716 86.5263 38.4096C86.8358 37.6477 87.3028 36.9595 87.8969 36.3899C89.0427 35.2919 90.5688 34.6775 92.1572 34.6745L92.3273 34.6764C94.2434 34.6764 95.7472 35.2471 96.8381 36.3895C97.3888 36.983 97.8167 37.6791 98.0975 38.438C98.3783 39.1968 98.5064 40.0035 98.4744 40.8118C98.5079 41.6452 98.3732 42.4767 98.0784 43.2571C97.7836 44.0374 97.3346 44.7507 96.7582 45.3544C96.1763 45.927 95.4854 46.3775 94.7264 46.6795C93.9673 46.9816 93.1554 47.1289 92.3385 47.113L92.1679 47.1069ZM86.6595 90.0566V51.9678C86.6595 51.4899 86.8714 51.2504 87.2982 51.2504H97.1175C97.5429 51.2504 97.7558 51.4894 97.7562 51.9678V90.0566C97.7562 90.5884 97.5433 90.8542 97.1175 90.8538H87.3781C86.9244 90.8538 86.6855 90.6153 86.6618 90.1383L86.6595 90.0566Z" fill="#FF9A00"/>
<defs>
<filter id="filter0_d_32_81" x="0" y="0" width="137" height="137" filterUnits="userSpaceOnUse" color-interpolation-filters="sRGB">
<feFlood flood-opacity="0" result="BackgroundImageFix"/>
<feColorMatrix in="SourceAlpha" type="matrix" values="0 0 0 0 0 0 0 0 0 0 0 0 0 0 0 0 0 0 127 0" result="hardAlpha"/>
<feOffset dx="1" dy="2"/>
<feGaussianBlur stdDeviation="4.5"/>
<feComposite in2="hardAlpha" operator="out"/>
<feColorMatrix type="matrix" values="0 0 0 0 0 0 0 0 0 0 0 0 0 0 0 0 0 0 0.25 0"/>
<feBlend mode="normal" in2="BackgroundImageFix" result="effect1_dropShadow_32_81"/>
<feBlend mode="normal" in="SourceGraphic" in2="effect1_dropShadow_32_81" result="shape"/>
</filter>
</defs>
</svg>
