<svg width="137" height="137" viewBox="0 0 137 137" fill="none" xmlns="http://www.w3.org/2000/svg">
<g filter="url(#filter0_d_32_60)">
<rect x="8" y="7" width="119" height="119" rx="5" fill="black"/>
<rect x="9.5" y="8.5" width="116" height="116" rx="3.5" stroke="white" stroke-width="3"/>
</g>
<path d="M34.951 42.4025C34.7936 37.8769 38.3191 33.7039 43.0851 33.7039H91.9202C96.6862 33.7039 100.212 37.8769 100.054 42.4025C99.9029 46.7495 100.099 52.3807 101.517 56.972C102.938 61.578 105.336 64.4886 109.262 64.8631V69.1045C105.336 69.479 102.938 72.3896 101.517 76.9955C100.099 81.5868 99.9029 87.2181 100.054 91.565C100.212 96.0906 96.6862 100.263 91.9202 100.263H43.0851C38.3191 100.263 34.7936 96.09 34.951 91.565C35.1024 87.2181 34.9058 81.5868 33.4881 76.9955C32.067 72.3902 29.6631 69.479 25.7365 69.1045V64.8631C29.6631 64.4892 32.067 61.578 33.4881 56.972C34.9058 52.3807 35.1017 46.7495 34.951 42.4025Z" fill="url(#paint0_linear_32_60)"/>
<g filter="url(#filter1_d_32_60)">
<path d="M69.5651 84.9186C77.2808 84.9186 81.9303 81.1408 81.9303 74.9095C81.9303 70.1994 78.6128 66.7894 73.6868 66.2496V66.0533C77.3059 65.4646 80.1459 62.1037 80.1459 58.3503C80.1459 53.0023 75.9237 49.5186 69.4897 49.5186H55.0132V84.9186H69.5651ZM60.643 54.008H68.1326C72.2041 54.008 74.5162 55.8234 74.5162 59.1107C74.5162 62.6189 71.8271 64.5814 66.9514 64.5814H60.643V54.008ZM60.643 80.4292V68.7764H68.0822C73.4103 68.7764 76.1749 70.7389 76.1749 74.566C76.1749 78.3929 73.4858 80.4292 68.409 80.4292H60.643Z" fill="url(#paint1_linear_32_60)"/>
</g>
<defs>
<filter id="filter0_d_32_60" x="0" y="0" width="137" height="137" filterUnits="userSpaceOnUse" color-interpolation-filters="sRGB">
<feFlood flood-opacity="0" result="BackgroundImageFix"/>
<feColorMatrix in="SourceAlpha" type="matrix" values="0 0 0 0 0 0 0 0 0 0 0 0 0 0 0 0 0 0 127 0" result="hardAlpha"/>
<feOffset dx="1" dy="2"/>
<feGaussianBlur stdDeviation="4.5"/>
<feComposite in2="hardAlpha" operator="out"/>
<feColorMatrix type="matrix" values="0 0 0 0 0 0 0 0 0 0 0 0 0 0 0 0 0 0 0.25 0"/>
<feBlend mode="normal" in2="BackgroundImageFix" result="effect1_dropShadow_32_60"/>
<feBlend mode="normal" in="SourceGraphic" in2="effect1_dropShadow_32_60" result="shape"/>
</filter>
<filter id="filter1_d_32_60" x="51.0827" y="46.5707" width="34.7782" height="43.2611" filterUnits="userSpaceOnUse" color-interpolation-filters="sRGB">
<feFlood flood-opacity="0" result="BackgroundImageFix"/>
<feColorMatrix in="SourceAlpha" type="matrix" values="0 0 0 0 0 0 0 0 0 0 0 0 0 0 0 0 0 0 127 0" result="hardAlpha"/>
<feOffset dy="0.98264"/>
<feGaussianBlur stdDeviation="1.96528"/>
<feColorMatrix type="matrix" values="0 0 0 0 0 0 0 0 0 0 0 0 0 0 0 0 0 0 0.15 0"/>
<feBlend mode="normal" in2="BackgroundImageFix" result="effect1_dropShadow_32_60"/>
<feBlend mode="normal" in="SourceGraphic" in2="effect1_dropShadow_32_60" result="shape"/>
</filter>
<linearGradient id="paint0_linear_32_60" x1="38.1482" y1="35.4655" x2="111.134" y2="93.4027" gradientUnits="userSpaceOnUse">
<stop stop-color="#9013FE"/>
<stop offset="1" stop-color="#6610F2"/>
</linearGradient>
<linearGradient id="paint1_linear_32_60" x1="57.5601" y1="51.8482" x2="73.8734" y2="79.4389" gradientUnits="userSpaceOnUse">
<stop stop-color="white"/>
<stop offset="1" stop-color="#F1E5FC"/>
</linearGradient>
</defs>
</svg>
