<svg width="1145" height="1038" viewBox="0 0 1145 1038" fill="none" xmlns="http://www.w3.org/2000/svg">
<g clip-path="url(#clip0_38_3)">
<path d="M407.09 892.628C406.572 892.524 406.105 892.317 405.638 892.005C403.925 890.812 403.51 888.424 404.756 886.711C404.756 886.711 404.756 886.712 404.756 886.66C409.27 880.328 414.458 874.515 420.269 869.325C421.722 867.82 424.161 867.716 425.665 869.221C427.17 870.674 427.274 873.114 425.769 874.619C425.665 874.774 425.51 874.878 425.354 874.982C419.958 879.809 415.133 885.258 410.93 891.123C410.1 892.369 408.595 892.94 407.09 892.628Z" fill="#110580"/>
<path d="M675.181 913.492C674.61 913.388 674.091 913.129 673.676 912.817C669.266 909.496 664.907 906.174 660.653 902.852C652.092 896.573 644.049 890.967 636.163 885.777C634.295 884.791 633.569 882.456 634.606 880.587C635.592 878.719 637.927 877.992 639.795 879.03C640.002 879.134 640.158 879.238 640.366 879.394C648.46 884.636 656.606 890.293 665.27 896.728C669.681 900.05 674.039 903.371 678.397 906.693C680.006 908.042 680.213 910.482 678.864 912.091C677.93 913.181 676.478 913.7 675.077 913.336L675.181 913.492ZM461.673 852.406C459.598 851.887 458.301 849.811 458.82 847.735C459.131 846.489 460.013 845.503 461.155 845.036C476.097 839.638 491.819 836.524 507.695 835.901C509.823 835.798 511.587 837.458 511.691 839.586C511.794 841.714 510.134 843.479 508.007 843.583C492.908 844.154 477.965 847.06 463.749 852.25C463.126 852.458 462.4 852.561 461.777 852.406H461.673ZM596.886 863.72C596.627 863.668 596.367 863.564 596.108 863.408C582.358 856.973 567.986 851.939 553.251 848.357C551.227 847.89 549.93 845.866 550.397 843.79V843.738C550.864 841.714 552.887 840.417 554.911 840.884C570.217 844.621 585.108 849.863 599.376 856.61C601.296 857.492 602.178 859.723 601.296 861.644C600.57 863.305 598.702 864.239 596.938 863.824L596.886 863.72Z" fill="#110580"/>
<path d="M962.416 139.715C957.539 138.054 952.143 140.338 949.912 144.957L862.538 314.047C866.066 315.863 870.268 316.071 873.952 314.566L1136.7 204.071C1140.38 202.514 1143.18 199.348 1144.33 195.507L962.416 139.715Z" fill="#D5D5ED"/>
<path d="M1067.8 16.3485C1067.48 16.1928 1067.12 16.089 1066.76 15.9852C1067.12 16.089 1067.43 16.1928 1067.8 16.3485Z" fill="white"/>
<path d="M965.789 182.584C970.562 183.622 975.491 181.598 978.138 177.446L1067.59 16.3485C1067.28 16.3485 1066.96 16.0371 1066.6 15.9852H1066.39H1066.13C1065.3 15.7776 1064.42 15.6219 1063.54 15.57L1064.73 15.7257C1062.35 15.4143 1059.96 15.7257 1057.73 16.608L794.983 127.155C791.818 128.504 789.276 130.996 787.875 134.162L965.789 182.584Z" fill="white"/>
<path d="M935.488 174.28L788.031 133.954C787.823 134.421 787.564 134.836 787.408 135.355C786.318 138.677 786.422 142.258 787.823 145.528L855.429 306.366C856.83 309.687 859.373 312.438 862.589 314.047L935.488 174.28Z" fill="#E8E8F7"/>
<path d="M1143.29 197.895L1143.03 198.362L1143.29 197.895Z" fill="#E8E8F7"/>
<path d="M1143.03 198.362C1142.61 199.14 1142.09 199.867 1141.52 200.542C1142.04 199.867 1142.56 199.14 1143.03 198.362Z" fill="#E8E8F7"/>
<path d="M1067.59 16.3485L993.444 149.939L1144.33 195.507C1144.07 196.338 1143.7 197.168 1143.29 197.947C1145.36 193.95 1145.57 189.227 1143.81 185.023L1076.2 24.1854C1074.59 20.4486 1071.48 17.5941 1067.59 16.3485Z" fill="#E8E8F7"/>
<path d="M1069.2 16.8156C1068.73 16.608 1068.21 16.5042 1067.74 16.2966C1068.26 16.6599 1068.73 16.6599 1069.2 16.8156Z" fill="#E8E8F7"/>
<path d="M239.917 840.417C235.61 835.019 227.983 833.67 222.12 837.303L2.74988 963.42C5.39602 968.039 9.9619 971.257 15.2023 972.191L388.619 1037.74C393.86 1038.62 399.256 1037.12 403.303 1033.64L239.917 840.417Z" fill="#D5D5ED"/>
<path d="M446.523 778.189C446.212 777.825 446.004 777.41 445.641 777.047C446.004 777.41 446.264 777.825 446.523 778.189Z" fill="white"/>
<path d="M212.884 890.76C217.502 895.379 224.507 896.624 230.422 893.874L446.627 778.189C446.315 777.825 446.108 777.41 445.797 777.047L445.589 776.735C445.485 776.683 445.381 776.58 445.33 776.528C444.499 775.697 443.669 774.919 442.683 774.244C443.099 774.556 443.462 774.919 443.877 775.282C441.438 773.206 438.533 771.805 435.42 771.234L61.9508 705.736C57.4368 704.958 52.819 705.944 49.0314 708.435L212.884 890.76Z" fill="white"/>
<path d="M184.918 859.62L48.9796 708.383C48.4088 708.695 47.8381 709.11 47.2674 709.473C43.6354 712.379 41.1968 716.48 40.3667 721.099L0.311371 949.666C-0.518791 954.389 0.363256 959.268 2.74997 963.42L184.918 859.62Z" fill="#E8E8F7"/>
<path d="M400.345 1035.66L399.723 1035.98L400.345 1035.66Z" fill="#E8E8F7"/>
<path d="M399.723 1035.98C398.633 1036.49 397.544 1036.96 396.402 1037.33C397.544 1036.96 398.685 1036.55 399.723 1035.98Z" fill="#E8E8F7"/>
<path d="M446.523 778.189L267.312 874.048L403.303 1033.74C402.369 1034.47 401.383 1035.15 400.397 1035.72C405.69 1032.76 409.373 1027.62 410.359 1021.65L450.259 793.084C451.193 787.842 449.844 782.392 446.523 778.189Z" fill="#E8E8F7"/>
<path d="M447.768 779.797C447.405 779.227 446.99 778.656 446.523 778.189C446.99 778.656 447.405 779.227 447.768 779.797Z" fill="#E8E8F7"/>
<path d="M220.304 690.789C219.993 691.204 219.63 691.567 219.215 691.879C217.45 693.021 215.064 692.554 213.922 690.789C209.668 684.302 206.088 677.347 203.338 670.081C202.404 668.161 203.234 665.877 205.102 664.995C207.022 664.061 209.304 664.891 210.187 666.759C210.29 666.967 210.342 667.175 210.394 667.382C213.04 674.129 216.361 680.617 220.356 686.637C221.238 687.883 221.186 689.543 220.304 690.789Z" fill="#110580"/>
<path d="M746.989 309.895C746.73 310.31 746.419 310.621 746.055 310.881L741.49 314.203C730.905 321.936 719.957 329.876 708.231 337.973C706.519 339.167 704.184 338.751 702.991 337.039C702.991 337.039 702.939 336.987 702.939 336.935C701.746 335.17 702.213 332.835 703.925 331.641C715.651 323.648 726.599 315.656 737.183 307.975L741.749 304.653C743.461 303.407 745.848 303.771 747.093 305.483C748.027 306.885 747.923 308.597 746.989 309.895ZM669.836 361.691C669.525 362.21 669.058 362.625 668.487 362.937C654.893 370.722 640.781 377.572 626.253 383.437C624.333 384.319 622.05 383.489 621.168 381.569C620.286 379.649 621.116 377.365 623.036 376.483C623.14 376.431 623.295 376.379 623.399 376.327C637.616 370.618 651.417 363.923 664.752 356.345C666.568 355.307 668.902 355.93 669.94 357.799C670.615 359.044 670.615 360.549 669.836 361.691ZM583.655 395.478C583.084 396.36 582.202 396.931 581.217 397.139C565.755 400.305 550.034 401.862 534.313 401.81C532.237 401.758 530.525 400.045 530.577 397.969C530.577 395.893 532.289 394.181 534.364 394.181C534.364 394.181 534.364 394.181 534.416 394.181C549.619 394.284 564.821 392.779 579.764 389.665C581.787 389.198 583.811 390.496 584.278 392.572C584.433 393.558 584.226 394.596 583.655 395.478ZM491.507 394.648C490.625 395.997 489.017 396.62 487.46 396.257C472.05 392.779 457.107 387.641 442.839 380.894C440.919 379.96 440.141 377.676 441.023 375.756C441.957 373.836 444.24 373.057 446.16 373.94C459.909 380.479 474.385 385.409 489.224 388.783C491.3 389.25 492.597 391.274 492.13 393.35C491.974 393.869 491.767 394.284 491.507 394.648ZM464.216 346.588C459.494 353.802 454.254 360.653 448.546 367.141C447.146 368.75 444.707 368.905 443.15 367.504C441.542 366.103 441.386 363.663 442.787 362.106C448.287 355.93 453.268 349.339 457.834 342.436C461.621 336.675 464.994 330.707 468.003 324.531C468.885 322.61 471.116 321.728 473.036 322.61C474.956 323.493 475.838 325.724 474.956 327.645C474.904 327.697 474.904 327.8 474.852 327.852C471.739 334.288 468.159 340.568 464.216 346.588ZM414.614 398.021C414.406 398.384 414.095 398.696 413.732 398.955C401.227 408.349 388.308 417.068 374.921 425.165C373.106 426.255 370.719 425.684 369.577 423.867C368.488 422.051 369.058 419.663 370.874 418.522C386.648 408.816 398.425 400.876 409.114 392.779C410.722 391.482 413.109 391.741 414.458 393.35C415.496 394.648 415.599 396.516 414.614 397.917V398.021ZM487.149 283.685C486.059 285.45 483.673 286.021 481.909 284.879C480.663 284.101 479.989 282.699 480.144 281.298C480.767 273.409 480.456 265.468 479.159 257.632C478.017 250.781 475.89 244.19 472.881 237.962C471.947 236.041 472.777 233.758 474.697 232.823C476.616 231.889 478.899 232.72 479.833 234.64C483.102 241.543 485.437 248.861 486.734 256.386C488.083 264.794 488.446 273.409 487.823 281.921C487.72 282.544 487.512 283.166 487.149 283.685ZM408.543 354.685C408.439 354.788 408.387 354.944 408.284 355.048C406.935 356.657 404.496 356.864 402.888 355.515C390.591 345.343 380.11 333.094 371.964 319.341C370.874 317.524 371.549 315.137 373.365 314.099C375.181 313.009 377.568 313.684 378.605 315.5C386.336 328.475 396.246 339.997 407.869 349.65C409.373 350.896 409.633 353.076 408.543 354.685ZM336.267 447.845C335.956 448.312 335.541 448.727 335.074 448.987C330.456 451.841 325.838 454.696 321.22 457.55C312.244 463.259 304.15 468.709 296.471 474.21C294.811 475.508 292.424 475.248 291.075 473.588C289.778 471.927 290.038 469.539 291.698 468.19C291.75 468.138 291.853 468.086 291.957 468.034C299.792 462.377 307.99 456.824 317.122 451.011C321.739 448.105 326.409 445.198 331.079 442.344C332.843 441.202 335.178 441.721 336.319 443.486C337.149 444.783 337.097 446.444 336.215 447.689L336.267 447.845ZM202.456 625.187C201.729 626.329 200.484 626.952 199.135 626.9C197.008 626.848 195.347 625.136 195.399 623.008C195.71 607.074 198.512 591.349 203.649 576.246C204.323 574.222 206.503 573.184 208.526 573.858C210.55 574.533 211.587 576.713 210.913 578.737C206.036 593.061 203.389 608.008 203.078 623.163C203.026 623.89 202.819 624.616 202.456 625.187ZM261.708 503.067C261.553 503.326 261.397 503.534 261.189 503.741C250.138 514.277 240.228 525.851 231.511 538.359C230.266 540.071 227.879 540.487 226.167 539.293C224.507 538.099 224.04 535.867 225.129 534.103C234.157 521.18 244.431 509.191 255.845 498.292C257.35 496.787 259.737 496.787 261.241 498.292C262.487 499.589 262.694 501.562 261.708 503.067ZM449.013 204.175C447.872 205.887 445.641 206.406 443.877 205.368C433.604 198.985 421.359 196.597 409.477 198.725C407.09 199.192 404.755 199.815 402.472 200.645C400.501 201.372 398.27 200.334 397.595 198.31C396.921 196.286 397.907 194.106 399.93 193.431C402.576 192.497 405.326 191.771 408.128 191.252C421.826 188.812 435.99 191.563 447.82 198.881C449.636 199.971 450.259 202.306 449.169 204.123L449.013 204.175ZM363.974 275.848C362.832 277.613 360.446 278.132 358.681 276.938C357.696 276.264 357.073 275.226 356.969 274.032C355.724 257.839 358.63 241.595 365.375 226.803C366.309 224.883 368.54 224.104 370.459 224.987C372.379 225.869 373.209 228.152 372.275 230.073C366.101 243.619 363.403 258.462 364.544 273.305C364.648 274.188 364.441 275.07 363.974 275.848Z" fill="#110580"/>
<path d="M806.242 274.551C805.724 275.33 804.945 275.9 804.011 276.16C797.163 278.184 790.573 281.09 784.451 284.827C782.635 285.865 780.3 285.242 779.21 283.426C778.173 281.609 778.795 279.274 780.663 278.184C787.356 274.084 794.568 270.918 802.092 268.738C804.115 268.219 806.191 269.465 806.761 271.489C807.021 272.527 806.865 273.669 806.242 274.551Z" fill="#110580"/>
<path d="M141.076 746.114C161.507 746.114 178.07 729.547 178.07 709.11C178.07 688.673 161.507 672.105 141.076 672.105C120.644 672.105 104.082 688.673 104.082 709.11C104.082 729.547 120.644 746.114 141.076 746.114Z" fill="#FF5856"/>
<path d="M867.803 105.543C871.306 90.703 862.119 75.8317 847.283 72.3275C832.447 68.8233 817.58 78.0131 814.077 92.8534C810.574 107.694 819.761 122.565 834.597 126.069C849.433 129.573 864.3 120.384 867.803 105.543Z" fill="#FF5856"/>
<path d="M719.387 571.73C717.207 554.603 704.911 540.435 691.265 529.795C652.714 499.849 600.57 489.884 552.265 497.669C534.261 500.576 516.257 505.921 501.21 516.249C470.286 537.58 456.848 580.45 468.937 616.053C470.753 619.945 473.399 623.475 476.616 626.329C461.57 654.874 452.749 675.997 440.037 705.425C469.923 682.744 502.04 663.178 535.869 647.037L540.072 649.269C580.438 673.87 633.828 661.933 674.454 637.799C698.84 623.423 722.967 599.756 719.387 571.73Z" fill="#FCFAF8"/>
<path d="M536.284 591.92C544.422 591.92 551.02 585.622 551.02 577.855C551.02 570.087 544.422 563.79 536.284 563.79C528.146 563.79 521.549 570.087 521.549 577.855C521.549 585.622 528.146 591.92 536.284 591.92Z" fill="#D6D7F0"/>
<path d="M587.65 591.92C595.789 591.92 602.386 585.622 602.386 577.855C602.386 570.087 595.789 563.79 587.65 563.79C579.512 563.79 572.915 570.087 572.915 577.855C572.915 585.622 579.512 591.92 587.65 591.92Z" fill="#D6D7F0"/>
<path d="M635.489 591.92C643.627 591.92 650.224 585.622 650.224 577.855C650.224 570.087 643.627 563.79 635.489 563.79C627.35 563.79 620.753 570.087 620.753 577.855C620.753 585.622 627.35 591.92 635.489 591.92Z" fill="#D6D7F0"/>
<path d="M643.375 635.983C654.323 603.286 688.463 584.446 721.358 574.118C797.526 550.399 879.763 555.071 952.766 587.249C986.543 602.248 1019.28 624.876 1034.07 658.767C1046.89 688.298 1044.03 723.434 1029.4 751.927C1014.72 780.42 988.982 802.737 959.77 816.179C969.94 842.233 985.402 874.152 995.571 900.206L933.516 863.616C923.139 856.973 912.036 851.523 900.414 847.423C884.329 842.493 867.155 842.856 850.5 841.87C803.492 839.119 756.536 825.21 718.141 797.807C679.746 770.404 650.535 729.351 641.87 683.056C638.965 667.434 638.394 651.034 643.375 635.983Z" fill="white"/>
<path d="M952.299 653.058H729.556C724.471 653.058 720.321 648.906 720.321 643.82C720.321 638.733 724.471 634.581 729.556 634.581H952.299C957.383 634.581 961.534 638.733 961.534 643.82C961.534 648.958 957.383 653.058 952.299 653.058Z" fill="#D6D7F0"/>
<path d="M879.349 697.173H729.504C724.42 697.173 720.269 693.021 720.269 687.935C720.269 682.848 724.42 678.696 729.504 678.696H879.349C884.433 678.696 888.584 682.848 888.584 687.935C888.636 693.073 884.485 697.173 879.349 697.173Z" fill="#D6D7F0"/>
<path d="M827.411 741.288H729.556C724.471 741.288 720.321 737.136 720.321 732.05C720.321 726.963 724.471 722.811 729.556 722.811H827.411C832.496 722.811 836.647 726.963 836.647 732.05C836.647 737.188 832.496 741.288 827.411 741.288Z" fill="#D6D7F0"/>
<path d="M872.707 722.811H934.139C939.224 722.811 943.375 726.963 943.375 732.05C943.375 737.136 939.224 741.288 934.139 741.288H872.707C867.623 741.288 863.472 737.136 863.472 732.05C863.472 726.963 867.623 722.811 872.707 722.811Z" fill="#D6D7F0"/>
<path d="M505.153 165.405C505.153 165.405 511.483 130.632 509.719 130.061L271.359 53.0418L505.153 165.405Z" fill="#494A63"/>
<path d="M559.944 86.6211L334.192 55.1697L532.497 44.9973L502.766 0L271.359 53.0418L609.909 162.395L559.944 86.6211Z" fill="#1B1C2B"/>
<path d="M517.087 80.6526L532.497 44.9973L334.192 55.1697L517.087 80.6526Z" fill="#494A5E"/>
<path d="M746.004 895.535C744.862 895.379 709.995 919.305 709.995 919.305L791.351 993.574L693.185 934.823L655.827 974.734L847.906 1031.3L746.004 895.535Z" fill="#1B1C2B"/>
<path d="M707.505 943.49L709.995 919.305L791.351 993.626L707.505 943.49Z" fill="#515374"/>
</g>
<defs>
<clipPath id="clip0_38_3">
<rect width="1145" height="1038" fill="white"/>
</clipPath>
</defs>
</svg>
