<svg width="137" height="137" viewBox="0 0 137 137" fill="none" xmlns="http://www.w3.org/2000/svg">
<g filter="url(#filter0_d_32_50)">
<rect x="8" y="7" width="119" height="119" rx="5" fill="black"/>
<rect x="9.5" y="8.5" width="116" height="116" rx="3.5" stroke="white" stroke-width="3"/>
</g>
<g clip-path="url(#clip0_32_50)">
<path d="M30.825 29.825H104.175V103.176H30.825V29.825Z" fill="#F0DB4F"/>
<path d="M98.1721 85.6812C97.6348 82.335 95.4527 79.5242 88.9893 76.9033C86.7439 75.8715 84.2408 75.1326 83.4949 73.4311C83.2301 72.4408 83.1949 71.883 83.3625 71.2836C83.8436 69.3383 86.1656 68.7318 88.0061 69.2896C89.1914 69.6869 90.3135 70.6004 90.9902 72.0576C94.1555 70.008 94.149 70.0215 96.3592 68.6129C95.55 67.3584 95.1182 66.7795 94.5885 66.2428C92.6848 64.1164 90.0908 63.0213 85.9424 63.1051L83.7814 63.3846C81.7107 63.9078 79.7373 64.9947 78.5801 66.452C75.1078 70.3918 76.098 77.2871 80.3232 80.1248C84.4857 83.249 90.6006 83.9598 91.3816 86.8812C92.1416 90.4578 88.7531 91.6156 85.3852 91.2043C82.9031 90.6881 81.5227 89.4266 80.0303 87.1326C77.2834 88.7223 77.2834 88.7223 74.4592 90.3465C75.1289 91.8107 75.8326 92.4734 76.9553 93.742C82.2686 99.1314 95.5646 98.8666 97.9494 90.7092C98.0461 90.4291 98.6883 88.5611 98.1721 85.6812ZM70.7004 63.5369H63.8396L63.8115 81.2744C63.8115 85.0467 64.0066 88.5049 63.3932 89.5648C62.3895 91.6496 59.7885 91.3912 58.6031 90.9869C57.3967 90.3939 56.7832 89.5508 56.0725 88.359C55.8773 88.0168 55.7309 87.752 55.6816 87.7314L50.1035 91.1475C51.0311 93.0512 52.3975 94.7035 54.1477 95.777C56.7621 97.3461 60.276 97.8271 63.951 96.9834C66.3428 96.2867 68.4064 94.8436 69.4869 92.6469C71.049 89.767 70.7139 86.2812 70.6998 82.4258C70.735 76.1357 70.7004 69.8469 70.7004 63.5369Z" fill="#323330"/>
</g>
<defs>
<filter id="filter0_d_32_50" x="0" y="0" width="137" height="137" filterUnits="userSpaceOnUse" color-interpolation-filters="sRGB">
<feFlood flood-opacity="0" result="BackgroundImageFix"/>
<feColorMatrix in="SourceAlpha" type="matrix" values="0 0 0 0 0 0 0 0 0 0 0 0 0 0 0 0 0 0 127 0" result="hardAlpha"/>
<feOffset dx="1" dy="2"/>
<feGaussianBlur stdDeviation="4.5"/>
<feComposite in2="hardAlpha" operator="out"/>
<feColorMatrix type="matrix" values="0 0 0 0 0 0 0 0 0 0 0 0 0 0 0 0 0 0 0.25 0"/>
<feBlend mode="normal" in2="BackgroundImageFix" result="effect1_dropShadow_32_50"/>
<feBlend mode="normal" in="SourceGraphic" in2="effect1_dropShadow_32_50" result="shape"/>
</filter>
<clipPath id="clip0_32_50">
<rect width="75" height="75" fill="white" transform="translate(30 29)"/>
</clipPath>
</defs>
</svg>
