<svg width="137" height="137" viewBox="0 0 137 137" fill="none" xmlns="http://www.w3.org/2000/svg">
<g filter="url(#filter0_d_32_72)">
<rect x="8" y="7" width="119" height="119" rx="5" fill="#001E36"/>
<rect x="9.5" y="8.5" width="116" height="116" rx="3.5" stroke="white" stroke-width="3"/>
</g>
<path d="M32 91.3294V41.7753C32 41.4141 32.1565 41.2326 32.4692 41.2326L32.9638 41.2312L33.8093 41.2222L34.9842 41.1991L38.9204 41.1165L43.141 41.0388C44.6254 41.0135 46.097 41 47.5559 41C51.5148 41 54.849 41.4913 57.5588 42.4735C60.0032 43.2939 62.2324 44.645 64.0842 46.4283C65.6541 47.9741 66.8672 49.8396 67.64 51.8959C68.371 53.8968 68.7415 56.0099 68.7344 58.1383C68.7344 62.2751 67.7701 65.6872 65.8425 68.3749C63.9572 70.997 61.3274 73.0023 58.2887 74.1351L58.028 74.2299C54.8549 75.4044 51.341 75.8289 47.4872 75.8555L46.8883 75.8574L45.9996 75.8528L45.5514 75.8465L45.0518 75.8348L44.7505 75.823L44.5676 75.8136L44.1175 75.7973L43.5674 75.786L42.7392 75.7801L42.5549 75.7797V91.2517C42.5686 91.3466 42.5598 91.4433 42.5293 91.5342C42.4988 91.6251 42.4474 91.7077 42.3791 91.7754C42.3108 91.8432 42.2276 91.8942 42.136 91.9245C42.0444 91.9548 41.947 91.9634 41.8514 91.9498H32.5474C32.182 91.9498 32 91.7439 32 91.3294ZM42.5553 50.5384V66.7009C43.179 66.7509 43.8044 66.7768 44.4302 66.7786H47.0094C48.7876 66.7727 50.5555 66.51 52.2575 65.9987L52.5969 65.8935C54.1453 65.4371 55.5288 64.5487 56.5827 63.334C57.562 62.188 58.0694 60.6088 58.1044 58.5962L58.1067 58.3709C58.1476 56.8708 57.7545 55.3905 56.9732 54.1058C56.152 52.8634 54.9651 51.902 53.5739 51.3526C51.7573 50.652 49.817 50.3224 47.869 50.3836L46.8779 50.3863L46.2526 50.3917L45.6561 50.3994L44.8142 50.4156L44.1999 50.4328L43.8809 50.4445L43.4545 50.4644L43.0914 50.4865L42.8843 50.5028L42.7055 50.5199L42.6268 50.529L42.5553 50.5384ZM98.9497 63.7621C97.5865 63.067 96.1405 62.5448 94.6459 62.2078L94.3 62.1338C92.6557 61.7593 90.9771 61.5531 89.2904 61.5183L88.869 61.5133C87.8802 61.4867 86.8928 61.6044 85.9385 61.8624C85.3309 61.9964 84.7908 62.3398 84.4141 62.8315C84.1594 63.2248 84.0239 63.6825 84.0236 64.15C84.0379 64.6035 84.2027 65.0395 84.4923 65.3905C84.9071 65.8718 85.4057 66.2752 85.9644 66.5813L86.1337 66.6702C87.2479 67.2656 88.3959 67.7963 89.5721 68.2597C92.1947 69.131 94.7008 70.3159 97.0349 71.7883C98.6252 72.7842 99.9412 74.1567 100.865 75.7824C101.641 77.3215 102.03 79.0243 101.998 80.7451C102.044 83.0178 101.39 85.2503 100.122 87.1434C98.7645 89.0648 96.8792 90.5585 94.6905 91.4468C92.3984 92.4466 89.5834 92.9627 86.2461 92.9966L85.8993 92.9984C83.8304 93.0192 81.7644 92.8395 79.7307 92.4619L79.2956 92.3779C77.5833 92.0663 75.9165 91.5453 74.3333 90.8268C74.1742 90.7453 74.0398 90.6233 73.9437 90.4734C73.8476 90.3234 73.7933 90.1509 73.7864 89.9733V81.5209C73.777 81.4389 73.7902 81.3558 73.8247 81.2807C73.8592 81.2055 73.9135 81.1411 73.982 81.0942C74.0491 81.0565 74.1262 81.0401 74.2029 81.047C74.2797 81.054 74.3525 81.084 74.4116 81.133C76.2812 82.227 78.3113 83.0251 80.4287 83.4983C82.2952 83.9626 84.2097 84.21 86.1337 84.2353C87.9566 84.2353 89.2981 84.0023 90.1582 83.5372C90.5465 83.3607 90.875 83.0764 91.1039 82.7186C91.3328 82.3607 91.4522 81.9447 91.4478 81.5209C91.4478 80.8499 91.0569 80.2032 90.2756 79.5823C89.9479 79.3222 89.4779 79.0391 88.8663 78.7334L88.5737 78.5907L88.2615 78.4448L88.0977 78.3708L87.7546 78.22C87.6951 78.1942 87.6354 78.1686 87.5757 78.1432L87.2026 77.9878L87.0083 77.9088L86.6051 77.7485L86.3958 77.6672L85.9621 77.5015L85.5085 77.3331C83.0546 76.4856 80.7279 75.3116 78.5921 73.8434C77.0647 72.7891 75.8069 71.3948 74.9194 69.772C74.1509 68.2439 73.7624 66.5554 73.7864 64.8477C73.782 62.7959 74.3499 60.7828 75.4273 59.0315C76.6559 57.1033 78.4197 55.568 80.507 54.6116C82.7991 53.475 85.6641 52.906 89.1029 52.9051C91.117 52.8891 93.1292 53.0318 95.1205 53.3318C96.5624 53.5133 97.9721 53.8917 99.3097 54.4562C99.5249 54.5177 99.6983 54.6753 99.7784 54.883C99.8316 55.0722 99.8576 55.2677 99.8566 55.4646V63.297C99.868 63.4822 99.7784 63.6596 99.6223 63.7621C99.5178 63.8137 99.4027 63.8405 99.286 63.8405C99.1693 63.8405 99.0542 63.8137 98.9497 63.7621Z" fill="#31A8FF"/>
<defs>
<filter id="filter0_d_32_72" x="0" y="0" width="137" height="137" filterUnits="userSpaceOnUse" color-interpolation-filters="sRGB">
<feFlood flood-opacity="0" result="BackgroundImageFix"/>
<feColorMatrix in="SourceAlpha" type="matrix" values="0 0 0 0 0 0 0 0 0 0 0 0 0 0 0 0 0 0 127 0" result="hardAlpha"/>
<feOffset dx="1" dy="2"/>
<feGaussianBlur stdDeviation="4.5"/>
<feComposite in2="hardAlpha" operator="out"/>
<feColorMatrix type="matrix" values="0 0 0 0 0 0 0 0 0 0 0 0 0 0 0 0 0 0 0.25 0"/>
<feBlend mode="normal" in2="BackgroundImageFix" result="effect1_dropShadow_32_72"/>
<feBlend mode="normal" in="SourceGraphic" in2="effect1_dropShadow_32_72" result="shape"/>
</filter>
</defs>
</svg>
