<svg width="137" height="137" viewBox="0 0 137 137" fill="none" xmlns="http://www.w3.org/2000/svg">
<g filter="url(#filter0_d_11_10)">
<g filter="url(#filter1_d_11_10)">
<rect x="8" y="7" width="119" height="119" rx="5" fill="black"/>
<rect x="9.5" y="8.5" width="116" height="116" rx="3.5" stroke="white" stroke-width="3"/>
</g>
<path d="M68 74.55C72.722 74.55 76.55 70.722 76.55 66C76.55 61.278 72.722 57.45 68 57.45C63.2779 57.45 59.45 61.278 59.45 66C59.45 70.722 63.2779 74.55 68 74.55Z" fill="#61DAFB"/>
<path d="M100.475 51.9C98.825 51.3 97.1 50.7 95.3 50.175C95.75 48.375 96.125 46.575 96.425 44.85C98 34.95 96.275 27.975 91.475 25.275C90.05 24.45 88.475 24.075 86.675 24.075C81.425 24.075 74.75 27.975 68 34.5C61.25 27.975 54.575 24.075 49.325 24.075C47.525 24.075 45.95 24.45 44.525 25.275C39.725 28.05 38 35.025 39.575 44.85C39.875 46.575 40.25 48.375 40.7 50.175C38.9 50.7 37.175 51.225 35.525 51.9C26.15 55.5 21.05 60.45 21.05 66C21.05 71.55 26.225 76.5 35.525 80.1C37.175 80.7 38.9 81.3 40.7 81.825C40.25 83.625 39.875 85.425 39.575 87.15C38 97.05 39.725 104.025 44.525 106.725C45.95 107.55 47.525 107.925 49.325 107.925C54.65 107.925 61.325 104.025 68 97.5C74.75 104.025 81.425 107.925 86.675 107.925C88.475 107.925 90.05 107.55 91.475 106.725C96.275 103.95 98 96.975 96.425 87.15C96.125 85.425 95.75 83.625 95.3 81.825C97.1 81.3 98.825 80.775 100.475 80.1C109.85 76.5 114.95 71.55 114.95 66C114.95 60.45 109.85 55.5 100.475 51.9ZM89.375 29.025C92.45 30.825 93.5 36.375 92.225 44.25C92 45.825 91.625 47.475 91.175 49.2C87.275 48.3 83.15 47.7 78.8 47.325C76.25 43.725 73.625 40.5 71 37.575C76.55 32.1 82.175 28.35 86.75 28.35C87.725 28.35 88.625 28.575 89.375 29.025ZM80.975 73.5C79.625 75.9 78.05 78.3 76.4 80.7C73.625 80.925 70.85 81 68 81C65.075 81 62.3 80.925 59.6 80.7C57.95 78.3 56.45 75.9 55.1 73.5C53.675 71.025 52.325 68.475 51.125 66C52.325 63.525 53.675 60.975 55.1 58.5C56.45 56.1 58.025 53.7 59.675 51.3C62.45 51.075 65.225 51 68.075 51C71 51 73.775 51.075 76.475 51.3C78.125 53.7 79.625 56.1 80.975 58.5C82.4 60.975 83.75 63.525 84.95 66C83.675 68.475 82.4 70.95 80.975 73.5ZM87.2 71.025C88.325 73.65 89.225 76.2 90.05 78.75C87.5 79.35 84.8 79.8 81.95 80.175C82.85 78.75 83.825 77.25 84.65 75.675C85.55 74.1 86.375 72.525 87.2 71.025ZM68 91.35C66.2 89.4 64.475 87.3 62.825 85.125C64.55 85.2 66.275 85.275 68 85.275C69.725 85.275 71.45 85.2 73.175 85.125C71.525 87.3 69.8 89.4 68 91.35ZM54.05 80.1C51.2 79.725 48.5 79.275 45.95 78.675C46.775 76.2 47.675 73.575 48.8 70.95C49.625 72.45 50.45 74.025 51.35 75.525C52.25 77.175 53.15 78.6 54.05 80.1ZM48.8 60.975C47.675 58.35 46.775 55.8 45.95 53.25C48.5 52.65 51.2 52.2 54.05 51.825C53.15 53.25 52.175 54.75 51.35 56.325C50.45 57.9 49.625 59.475 48.8 60.975ZM68 40.65C69.8 42.6 71.525 44.7 73.175 46.875C71.45 46.8 69.725 46.725 68 46.725C66.275 46.725 64.55 46.8 62.825 46.875C64.475 44.7 66.2 42.6 68 40.65ZM84.65 56.4L81.95 51.9C84.8 52.275 87.5 52.725 90.05 53.325C89.225 55.8 88.325 58.425 87.2 61.05C86.375 59.475 85.55 57.9 84.65 56.4ZM43.775 44.25C42.5 36.375 43.55 30.825 46.625 29.025C47.375 28.575 48.275 28.35 49.25 28.35C53.75 28.35 59.375 32.025 65 37.575C62.375 40.425 59.75 43.725 57.2 47.325C52.85 47.7 48.725 48.375 44.825 49.2C44.375 47.475 44.075 45.825 43.775 44.25ZM25.25 66C25.25 62.475 29.525 58.725 37.025 55.95C38.525 55.35 40.175 54.825 41.825 54.375C43.025 58.125 44.525 62.1 46.325 66.075C44.525 70.05 42.95 73.95 41.825 77.7C31.475 74.7 25.25 70.2 25.25 66ZM46.625 102.975C43.55 101.175 42.5 95.625 43.775 87.75C44 86.175 44.375 84.525 44.825 82.8C48.725 83.7 52.85 84.3 57.2 84.675C59.75 88.275 62.375 91.5 65 94.425C59.45 99.9 53.825 103.65 49.25 103.65C48.275 103.65 47.375 103.425 46.625 102.975ZM92.225 87.75C93.5 95.625 92.45 101.175 89.375 102.975C88.625 103.425 87.725 103.65 86.75 103.65C82.25 103.65 76.625 99.975 71 94.425C73.625 91.575 76.25 88.275 78.8 84.675C83.15 84.3 87.275 83.625 91.175 82.8C91.625 84.525 91.925 86.175 92.225 87.75ZM98.975 76.05C97.475 76.65 95.825 77.175 94.175 77.625C92.975 73.875 91.475 69.9 89.675 65.925C91.475 61.95 93.05 58.05 94.175 54.3C104.525 57.3 110.75 61.8 110.75 66C110.75 69.525 106.4 73.275 98.975 76.05Z" fill="#61DAFB"/>
</g>
<defs>
<filter id="filter0_d_11_10" x="0" y="0" width="137" height="137" filterUnits="userSpaceOnUse" color-interpolation-filters="sRGB">
<feFlood flood-opacity="0" result="BackgroundImageFix"/>
<feColorMatrix in="SourceAlpha" type="matrix" values="0 0 0 0 0 0 0 0 0 0 0 0 0 0 0 0 0 0 127 0" result="hardAlpha"/>
<feOffset dx="1" dy="2"/>
<feGaussianBlur stdDeviation="4.5"/>
<feComposite in2="hardAlpha" operator="out"/>
<feColorMatrix type="matrix" values="0 0 0 0 0 0 0 0 0 0 0 0 0 0 0 0 0 0 0.25 0"/>
<feBlend mode="normal" in2="BackgroundImageFix" result="effect1_dropShadow_11_10"/>
<feBlend mode="normal" in="SourceGraphic" in2="effect1_dropShadow_11_10" result="shape"/>
</filter>
<filter id="filter1_d_11_10" x="0" y="0" width="137" height="137" filterUnits="userSpaceOnUse" color-interpolation-filters="sRGB">
<feFlood flood-opacity="0" result="BackgroundImageFix"/>
<feColorMatrix in="SourceAlpha" type="matrix" values="0 0 0 0 0 0 0 0 0 0 0 0 0 0 0 0 0 0 127 0" result="hardAlpha"/>
<feOffset dx="1" dy="2"/>
<feGaussianBlur stdDeviation="4.5"/>
<feComposite in2="hardAlpha" operator="out"/>
<feColorMatrix type="matrix" values="0 0 0 0 0 0 0 0 0 0 0 0 0 0 0 0 0 0 0.25 0"/>
<feBlend mode="normal" in2="BackgroundImageFix" result="effect1_dropShadow_11_10"/>
<feBlend mode="normal" in="SourceGraphic" in2="effect1_dropShadow_11_10" result="shape"/>
</filter>
</defs>
</svg>
