<svg width="410" height="494" viewBox="0 0 410 494" fill="none" xmlns="http://www.w3.org/2000/svg">
<path d="M84.8667 2.53348C82.4667 4.40015 82.3334 6.53348 82.0667 42.0002C81.8 76.2668 81.5334 79.8668 79.4 81.4668C77.5334 82.8002 68.8667 83.2002 40.3334 83.3335C13.5334 83.3335 3.13337 83.7335 1.93337 84.9335C0.733374 86.1335 0.333374 96.6668 0.333374 124.267C0.333374 160.133 0.466707 162 2.86671 163.333C4.33337 164 12.3334 164.667 20.6 164.667H35.6667L79 121.333C114.333 86.0002 123 78.0002 125.933 78.0002C133.267 78.0002 133.667 79.6002 133.667 109.6V137.067L107.667 163.333L81.6667 189.6V206.667V223.733L92.3334 234.533L102.867 245.333L213.133 135.067C273.667 74.4002 324.333 24.4002 325.8 24.0002C329.667 22.8002 329.533 7.20015 325.667 3.33348C323 0.666817 321.667 0.533483 286.2 0.933483C255.4 1.33348 249.4 1.60015 248.333 3.33348C247.533 4.40015 247 21.0668 247 41.6002C247 76.2668 246.867 78.1335 244.333 80.6668C241.8 83.2002 239.933 83.3335 205 83.3335C170.067 83.3335 168.2 83.2002 165.667 80.6668C163.133 78.1335 163 76.2668 163 41.4668C163 10.0002 162.733 4.53348 160.867 2.80015C159.133 0.933483 153.8 0.666817 123.133 0.666817C94.4667 0.666817 87 1.06682 84.8667 2.53348Z" fill="#E02424"/>
<path d="M358.6 105.733L336.333 128L354.733 146.4L373 164.667H389.8C401 164.667 407 164.133 408.067 163.067C409.267 161.867 409.667 151.333 409.667 123.733C409.667 79.7334 411.133 83.3334 392.733 83.3334H381L358.6 105.733Z" fill="#E02424"/>
<path d="M191.267 273.067L81.6667 382.667V393.6C81.6667 399.6 82.2 406 83 407.867L84.3334 411.333H122.2C151.533 411.333 160.333 410.933 161.4 409.6C162.333 408.533 163 394.667 163.267 370.4C163.533 341.733 164.067 332.4 165.4 331.067C166.733 329.733 175.8 329.333 205.133 329.333C241.267 329.333 243.267 329.467 245.133 331.867C246.6 334 247 341.6 247 371.333C247 398.133 247.4 408.533 248.6 409.733C249.8 410.933 260.2 411.333 287.133 411.333C319 411.333 324.467 411.067 326.2 409.2C328.067 407.467 328.333 402 328.333 370C328.333 333.067 328.333 332.8 331.267 330.8C333.8 328.933 339.933 328.667 371.133 328.667C403.533 328.667 408.2 328.4 408.867 326.533C409.267 325.333 409.667 307.733 409.667 287.333C409.667 254.8 409.4 250.133 407.533 249.467C406.333 249.067 397.933 248.667 388.733 248.667H372.067L328.867 292C283.933 337.2 282.2 338.533 277.267 332.933C275.267 330.8 275 326.667 275 302.667V274.8L301.667 248L328.333 221.2V206V190.667L314.6 176.933L301 163.333L191.267 273.067Z" fill="#E02424"/>
<path d="M2.73335 250C0.600012 251.866 0.333346 255.067 0.200012 288.4C0.200012 314.533 0.600012 325.467 1.80001 326.8C2.86668 328 6.06668 328.667 11.5333 328.667H19.6667L43.6667 304.667L67.5333 280.533L51.5333 264.533L35.5333 248.533L20.3333 248.266C8.46668 248 4.60001 248.4 2.73335 250Z" fill="#E02424"/>
<path d="M81.6667 466.667V494H85.6667H89.6667V482.667V471.333H96.3334H103V482.667V494H107.667H112.333V466.667V439.333H107.667H103V450.533C103 456.8 102.6 462.133 102.067 462.4C101.4 462.667 98.4667 462.667 95.4 462.267L89.6667 461.733V450.533V439.333H85.6667H81.6667V466.667Z" fill="black"/>
<path d="M126.333 444.933C125.533 450.667 119.667 483.333 118.2 490.4C117.4 494 117.667 494.133 121.933 493.733C126.067 493.333 126.333 492.933 127.533 486.933L128.6 480.667H134.467C140.733 480.667 140.067 480 142.333 490.667C142.867 493.333 143.8 494 147.133 494C151.267 494 151.267 494 150.333 488.267C149.267 481.733 144.733 456.4 142.867 446.267L141.533 439.333H134.333H127.267L126.333 444.933ZM137 460.8C137.933 466.267 138.6 470.8 138.333 471.067C138.067 471.333 136.2 471.333 134.067 471.067L130.2 470.667L132.067 460.267C133.133 454.533 134.2 450.133 134.467 450.4C134.867 450.667 135.933 455.333 137 460.8Z" fill="black"/>
<path d="M159.267 442.933C157.667 445.2 156.467 449.333 156.333 453.333C155.8 463.2 156.067 464 159.8 467.733C162.467 470.4 164.867 471.333 170.067 471.6L177 472L177.4 477.067C177.933 483.733 175.8 486.267 169.8 485.733C165.267 485.333 165 485.067 164.6 480.267C164.2 475.733 163.8 475.333 160.2 475.333C157.133 475.333 156.333 475.867 156.2 478.267C156.2 480 155.933 482.4 155.667 483.733C155.4 485.067 156.733 487.867 158.6 490C161.667 493.733 162.6 494 170.467 494C178.067 494 179.533 493.6 182.333 490.533C185.133 487.467 185.667 485.6 185.667 477.867C185.667 469.467 185.4 468.667 181.667 465.467C178.467 462.8 176.467 462.133 172.333 462.533C165.8 463.2 164.067 461.2 164.6 453.733C165 448.267 165.267 448 169.4 447.6C175 447.067 177.667 449.2 177.667 454.133C177.667 457.6 178.2 458 181.667 458C185.533 458 185.667 457.733 185.667 452.4C185.667 448.133 184.867 445.867 182.067 443.067C178.867 439.733 177.533 439.333 170.2 439.333C162.6 439.333 161.667 439.733 159.267 442.933Z" fill="black"/>
<path d="M193.667 466.667V494H197.667H201.667V482.667V471.333H208.333H215V482.667V494H219H223V466.667V439.333H219H215V450.933V462.667L208.333 462.267L201.667 461.733V450.533V439.333H197.667H193.667V466.667Z" fill="black"/>
<path d="M229.667 443.333C229.667 447.067 229.933 447.333 235 447.333H240.333V470.667V494H244.333H248.333L248.6 470.933L249 448L254.733 447.6C259.933 447.2 260.333 446.933 260.333 443.2V439.333H245H229.667V443.333Z" fill="black"/>
<path d="M270.333 442.267C269.933 444 267.667 456.267 265.267 469.6L260.733 494H265.133C269.4 494 269.667 493.867 270.467 487.333L271.4 480.667H277.667H283.933L284.867 487.333C285.667 493.733 285.933 494 290.067 494H294.467L290.867 472.933C288.867 461.467 286.733 449.333 286.067 446L284.867 440L278.067 439.6C271.667 439.2 271 439.467 270.333 442.267ZM280.067 459.867C282.2 471.333 282.2 471.333 277.533 471.333C273.533 471.333 273.4 471.2 274.2 466.933C274.733 464.667 275.4 460.133 275.933 456.933C276.333 453.867 277.133 451.333 277.667 451.333C278.067 451.333 279.267 455.2 280.067 459.867Z" fill="black"/>
<path d="M302.6 443.067C299 446.8 299 446.933 299 466.667C299 486.4 299 486.533 302.6 490.267C305.8 493.6 307.133 494 314.333 494C321.533 494 322.867 493.6 326.2 490.133C329.533 486.667 329.8 485.733 329.4 475.867L329 465.333L322.067 464.933L315 464.533V469.2C315 473.2 315.533 474 317.8 474C320.2 474 320.467 474.667 320.067 479.6C319.667 485.067 319.4 485.333 315.267 485.733C307.667 486.533 307 484.933 307 466.667C307 448.4 307.667 446.8 315.267 447.6C319.4 448 319.667 448.267 320.067 453.6C320.467 459.2 320.6 459.333 325.133 459.333C329.667 459.333 329.667 459.333 329.667 453.467C329.667 449.067 328.733 446.533 326.2 443.467C323 439.6 322.067 439.333 314.467 439.333C307.133 439.333 305.8 439.733 302.6 443.067Z" fill="black"/>
</svg>
