<?xml version="1.0" standalone="no"?>
<!DOCTYPE svg PUBLIC "-//W3C//DTD SVG 20010904//EN"
 "http://www.w3.org/TR/2001/REC-SVG-20010904/DTD/svg10.dtd">
<svg version="1.0" xmlns="http://www.w3.org/2000/svg"
 width="800.000000pt" height="600.000000pt" viewBox="0 0 800.000000 600.000000"
 preserveAspectRatio="xMidYMid meet">

<g transform="translate(0.000000,600.000000) scale(0.100000,-0.100000)"
fill="#000000" stroke="none">
<path d="M2753 4431 c-95 -32 -174 -102 -221 -196 -45 -91 -46 -103 -39 -1271
6 -1076 7 -1104 27 -1156 42 -110 124 -190 236 -229 50 -18 88 -19 542 -19
l489 0 -8 56 c-13 94 -30 155 -65 233 l-34 74 -115 -7 c-63 -4 -125 -9 -137
-11 -13 -2 -59 -6 -104 -10 -130 -10 -161 14 -166 127 l-3 67 170 220 c94 121
173 219 177 218 4 -1 103 -90 220 -198 117 -108 232 -214 256 -235 33 -30 70
-92 167 -278 69 -132 125 -243 125 -248 0 -4 36 -8 81 -8 l81 0 -35 62 c-19
35 -62 117 -96 184 l-62 121 41 75 c22 42 46 81 53 86 15 12 278 74 285 67 3
-3 -2 -13 -10 -22 -8 -10 -36 -53 -62 -95 l-48 -77 12 -58 c17 -86 56 -199 93
-273 l34 -65 219 0 c214 -1 215 -1 59 5 -88 3 -134 7 -102 8 50 2 59 5 66 24
5 13 7 26 4 31 -2 4 0 7 5 7 9 0 40 62 46 90 2 8 13 38 26 65 13 28 23 53 22
58 -1 4 2 7 7 7 9 0 47 90 43 103 -1 4 1 7 6 7 8 0 38 67 40 93 1 4 12 29 25
55 25 49 70 143 72 152 1 3 11 26 23 53 12 26 21 50 21 52 0 3 11 27 24 53 13
26 34 67 45 92 11 25 39 84 61 132 23 48 41 90 41 93 0 7 65 151 80 177 6 10
11 46 12 80 1 35 5 -52 8 -192 3 -140 6 105 5 545 0 778 -1 801 -20 847 -49
115 -133 193 -244 228 -62 20 -90 20 -1245 20 -1110 -1 -1184 -2 -1233 -19z
m1291 -77 c254 -48 504 -182 699 -375 53 -53 97 -100 96 -105 0 -8 -916 -607
-960 -628 -14 -7 -132 60 -561 319 -299 180 -547 331 -551 335 -11 9 139 133
253 210 99 67 273 156 375 193 205 73 434 91 649 51z m1049 -586 c115 -155
184 -353 194 -560 3 -65 4 -118 1 -118 -13 0 -662 367 -664 376 -2 11 396 362
412 363 6 1 32 -27 57 -61z m-1766 -393 l358 -215 7 -62 c7 -60 6 -64 -25
-103 -18 -23 -164 -211 -326 -417 l-294 -377 -26 17 c-52 32 -61 44 -61 83 0
34 -5 41 -44 69 -42 29 -45 33 -48 82 l-3 52 -75 47 c-41 25 -77 54 -78 63 -5
23 18 48 106 113 88 65 132 128 131 187 -1 71 -9 80 -70 81 -65 2 -127 31
-163 77 -14 18 -24 34 -22 36 2 1 23 -2 48 -7 50 -12 108 0 128 24 8 10 12 44
11 98 -1 45 5 118 14 162 18 94 53 205 65 205 5 0 170 -97 367 -215z m1269
-46 c91 -50 164 -94 162 -98 -2 -5 -82 -78 -178 -164 l-175 -157 -312 0 c-172
0 -313 4 -313 8 0 4 33 48 73 96 69 85 83 96 312 247 132 86 246 158 253 158
7 1 87 -40 178 -90z m891 -141 c-3 -7 -5 -2 -5 12 0 14 2 19 5 13 2 -7 2 -19
0 -25z m-502 -91 l130 -73 -3 -44 c-6 -107 -66 -244 -148 -345 -49 -58 -198
-195 -213 -195 -10 1 -156 274 -155 291 0 16 245 438 254 438 3 0 64 -33 135
-72z m502 36 c-3 -10 -5 -4 -5 12 0 17 2 24 5 18 2 -7 2 -21 0 -30z m-994
-495 c47 -84 89 -161 92 -170 5 -13 -14 -42 -69 -105 l-75 -87 -186 -43 -185
-43 -210 183 c-240 208 -225 179 -170 330 l32 87 343 0 343 0 85 -152z"/>
</g>
</svg>
